<svg width="42" height="60" viewBox="0 0 42 60" fill="none" xmlns="http://www.w3.org/2000/svg">
<path d="M16.4812 0V7.45418H10.3315C4.75577 7.45418 0.081996 11.7031 0.081996 16.7719V20.499C0.081996 25.5678 3.68982 29.7422 9.01956 31.0094L30.0105 35.9292C31.1585 36.2273 32.7984 38.0909 32.7984 39.209V42.9361C32.7984 43.9797 31.8964 44.7996 30.7485 44.7996H10.2495C9.26555 44.7996 8.52759 44.5015 8.1996 44.3524V37.3455H0V44.7996C0 47.3341 1.63992 49.4958 3.60782 50.6139C5.49373 51.8066 7.87162 52.2538 10.2495 52.2538H16.3992V59.708H24.5988V52.2538H30.7485C36.4062 52.2538 40.998 48.0795 40.998 42.9361V39.209C40.998 34.1402 37.3902 29.9658 32.0604 28.6986L11.0695 23.7788C9.92152 23.4807 8.2816 21.6171 8.2816 20.499V16.7719C8.2816 15.7283 9.18355 14.9084 10.3315 14.9084H30.8305C31.7325 14.9084 32.5524 15.2065 32.8804 15.3556V22.3625H41.08V14.9084C41.08 12.3739 39.4401 10.2122 37.4722 9.0941C35.5863 7.90143 33.2084 7.45418 30.8305 7.45418H24.6808V0H16.4812V0Z" fill="black"/>
</svg>
