<svg width="47" height="59" viewBox="0 0 47 59" fill="none" xmlns="http://www.w3.org/2000/svg">
<path d="M43.4395 29.0963C41.3446 27.6753 38.3603 27.1069 38.3603 27.1069C38.3603 27.1069 40.8857 25.7883 41.9176 24.4709C42.9507 23.153 43.467 21.1112 43.5534 20.0518C43.6392 18.9918 43.8404 14.5476 39.9952 11.9897C37.021 10.0104 33.6126 9.22467 29.0357 8.96905V0H22.8956V8.86308H18.2188V0H12.0793V8.86308H0V14.6058H3.55043C4.5184 14.6058 6.23995 14.7027 6.97145 15.4401C7.70323 16.1762 7.83237 16.5641 7.83237 17.9975L7.83265 40.8802C7.83265 41.4227 7.71786 42.0942 7.20102 42.5339C6.68505 42.9735 6.16878 43.0761 4.93451 43.0761H1.2624L0 49.718H12.0793V58.556H18.2191V49.718H22.8959V58.556H29.036V49.5722C30.6232 49.4887 32.1031 49.3804 32.9664 49.2786C34.7169 49.0724 38.676 48.6588 42.3779 46.333C46.0788 44.0068 46.9101 40.3631 46.9965 36.694C47.0837 33.0246 45.5324 30.5176 43.4395 29.0963ZM18.2188 15.1168C18.2188 15.1168 20.1696 14.9619 22.0921 14.9873C24.0151 15.0129 25.7071 15.0648 28.2327 15.7627C30.7572 16.4608 32.2481 18.1663 32.3066 20.182C32.3637 22.1978 31.3871 23.541 29.6665 24.3939C27.9452 25.2466 25.565 25.7118 23.3261 25.7885C21.0885 25.8663 18.2188 25.7885 18.2188 25.7885V15.1168ZM31.962 41.5517C30.5561 42.2498 27.744 42.8699 25.0189 43.0503C22.293 43.2314 18.2188 43.1539 18.2188 43.1539V31.2924C18.2188 31.2924 22.1211 31.112 25.1627 31.2924C28.2038 31.4741 30.7572 32.1712 31.9043 32.6889C33.0519 33.2053 35.061 34.342 35.061 37.0558C35.061 39.7686 33.367 40.8541 31.962 41.5517Z" fill="black"/>
</svg>
