<svg width="47" height="66" viewBox="0 0 47 66" fill="none" xmlns="http://www.w3.org/2000/svg">
<path d="M23.5 0L20.8367 2.72993C19.975 3.61314 0 24.3285 0 41.9124C0 55.1606 10.575 66 23.5 66C36.425 66 47 55.1606 47 41.9124C47 24.4088 27.025 3.61314 26.1633 2.72993L23.5 0V0ZM11.75 37.8978C13.9433 37.8978 15.6667 39.6642 15.6667 41.9124C15.6667 46.3285 19.1917 49.9416 23.5 49.9416C25.6933 49.9416 27.4167 51.708 27.4167 53.9562C27.4167 56.2044 25.6933 57.9708 23.5 57.9708C14.8833 57.9708 7.83333 50.7445 7.83333 41.9124C7.83333 39.6642 9.55667 37.8978 11.75 37.8978Z" fill="black"/>
</svg>
