<svg width="210" height="60" viewBox="0 0 210 60" fill="none" xmlns="http://www.w3.org/2000/svg">
<g filter="url(#filter0_d_24_720)">
<rect x="10" y="10" width="180" height="30" rx="10" fill="#F1F1F1" shape-rendering="crispEdges"/>
<path d="M91.3006 17.4545V32H88.6657V20.0185H88.5804L85.1784 22.1918V19.777L88.7935 17.4545H91.3006ZM101.634 23.669V25.7855H95.0861V23.669H101.634ZM109.394 32.1989C108.371 32.1989 107.462 32.0237 106.666 31.6733C105.876 31.3229 105.251 30.8352 104.791 30.2102C104.332 29.5852 104.088 28.8632 104.06 28.044H106.73C106.754 28.437 106.884 28.7803 107.121 29.0739C107.358 29.3627 107.673 29.5876 108.066 29.7486C108.459 29.9096 108.899 29.9901 109.387 29.9901C109.907 29.9901 110.369 29.9001 110.771 29.7202C111.174 29.5355 111.489 29.2798 111.716 28.9531C111.943 28.6264 112.055 28.25 112.05 27.8239C112.055 27.3835 111.941 26.9953 111.709 26.6591C111.477 26.3229 111.141 26.0601 110.7 25.8707C110.265 25.6813 109.739 25.5866 109.124 25.5866H107.838V23.5554H109.124C109.63 23.5554 110.073 23.4678 110.452 23.2926C110.835 23.1174 111.136 22.8712 111.354 22.554C111.572 22.232 111.678 21.8603 111.673 21.4389C111.678 21.027 111.586 20.6695 111.396 20.3665C111.212 20.0587 110.949 19.8196 110.608 19.6491C110.272 19.4787 109.877 19.3935 109.422 19.3935C108.977 19.3935 108.565 19.474 108.186 19.6349C107.807 19.7959 107.502 20.0256 107.27 20.3239C107.038 20.6174 106.915 20.9678 106.901 21.375H104.365C104.384 20.5606 104.619 19.8456 105.068 19.2301C105.523 18.6098 106.129 18.1269 106.887 17.7812C107.644 17.4309 108.494 17.2557 109.436 17.2557C110.407 17.2557 111.25 17.438 111.965 17.8026C112.684 18.1624 113.241 18.6477 113.634 19.2585C114.027 19.8693 114.223 20.544 114.223 21.2827C114.228 22.1018 113.986 22.7884 113.499 23.3423C113.016 23.8963 112.381 24.2585 111.595 24.429V24.5426C112.618 24.6847 113.402 25.0634 113.946 25.679C114.495 26.2898 114.768 27.0497 114.763 27.9588C114.763 28.7732 114.531 29.5024 114.067 30.1463C113.608 30.7855 112.973 31.2874 112.164 31.652C111.359 32.0166 110.435 32.1989 109.394 32.1989Z" fill="black"/>
</g>
<defs>
<filter id="filter0_d_24_720" x="0" y="0" width="210" height="60" filterUnits="userSpaceOnUse" color-interpolation-filters="sRGB">
<feFlood flood-opacity="0" result="BackgroundImageFix"/>
<feColorMatrix in="SourceAlpha" type="matrix" values="0 0 0 0 0 0 0 0 0 0 0 0 0 0 0 0 0 0 127 0" result="hardAlpha"/>
<feOffset dx="5" dy="5"/>
<feGaussianBlur stdDeviation="7.5"/>
<feComposite in2="hardAlpha" operator="out"/>
<feColorMatrix type="matrix" values="0 0 0 0 0 0 0 0 0 0 0 0 0 0 0 0 0 0 0.15 0"/>
<feBlend mode="normal" in2="BackgroundImageFix" result="effect1_dropShadow_24_720"/>
<feBlend mode="normal" in="SourceGraphic" in2="effect1_dropShadow_24_720" result="shape"/>
</filter>
</defs>
</svg>
