<svg width="84" height="84" viewBox="0 0 84 84" fill="none" xmlns="http://www.w3.org/2000/svg">
<path d="M3.55982 0.0212026C2.47843 0.384725 1.54575 1.09222 0.904239 2.03562C0.262725 2.97902 -0.0523611 4.10648 0.0071052 5.24578V57.4915C0.0071052 58.8772 0.55755 60.2061 1.53735 61.1859C2.51715 62.1657 3.84604 62.7161 5.23168 62.7161H31.3546V73.1653H20.9054C15.1584 73.1653 10.4563 77.8674 10.4563 83.6144H73.1512C73.1512 77.8674 68.4491 73.1653 62.702 73.1653H52.2529V62.7161H78.3758C79.7614 62.7161 81.0903 62.1657 82.0701 61.1859C83.0499 60.2061 83.6003 58.8772 83.6003 57.4915V5.24578C83.6003 3.86014 83.0499 2.53124 82.0701 1.55145C81.0903 0.571648 79.7614 0.0212026 78.3758 0.0212026L5.23168 0.0212026C4.91884 -0.00706752 4.60409 -0.00706752 4.29126 0.0212026C4.08246 0.00865227 3.8731 0.00865227 3.66431 0.0212026L3.55982 0.0212026ZM10.4563 10.4704H73.1512V52.267H10.4563V10.4704Z" fill="black"/>
</svg>
