<svg width="75" height="60" viewBox="0 0 75 60" fill="none" xmlns="http://www.w3.org/2000/svg">
<path d="M38.0052 0.00758189C24.6095 -0.296386 12.722 8.56779 9.21471 21.5028C9.37371 21.442 9.04402 21.5402 9.21471 21.5028C-2.86685 29.4551 -3.01182 46.7836 8.44778 55.615L8.45947 55.5917L8.43609 55.6899C12.1024 58.4536 16.5591 59.929 21.1513 59.915H37.2756L37.3738 59.9992H53.559C74.4089 60.1699 82.7867 33.1822 65.519 21.5028C64.0342 16.0103 60.9758 11.079 56.7273 7.31451L56.594 7.44779L56.6057 7.28879C51.4546 2.74563 44.8655 0.164243 38.0098 0.00524384L38.0052 0.00758189ZM36.8852 12.9403C40.7572 12.807 44.7392 14.086 47.7485 16.5201C51.5107 19.6626 53.6549 24.3391 53.5566 29.2353V30.8557C64.565 30.6359 64.565 47.2606 53.5566 47.0408H37.3715L37.3481 47.0642V46.9426H21.1513C20.0056 46.9426 18.8739 46.6994 17.8264 46.2248C12.6753 43.8982 11.4454 37.1268 15.439 33.1214C19.4467 29.1277 26.2042 30.3576 28.5424 35.5087L37.9327 26.1184C34.8158 22.0499 30.3101 19.2628 25.2806 18.2761C25.3414 18.2527 25.4022 18.2036 25.4513 18.2153C28.3974 14.9768 32.5267 13.0759 36.8992 12.9426L36.8852 12.9403Z" fill="black"/>
</svg>
