<svg width="69" height="73" viewBox="0 0 69 73" fill="none" xmlns="http://www.w3.org/2000/svg">
<path d="M34.5 0L32.8612 0.817881L2.67375 14.1766L0 15.358V18.1751C0 33.2605 5.77875 46.5283 12.6788 56.252C16.1288 61.0684 19.8375 65.067 23.46 67.8841C27.0825 70.7012 30.6188 72.7005 34.5 72.7005C38.4675 72.7005 41.9175 70.7012 45.54 67.8841C49.1625 65.067 52.8713 61.0684 56.3213 56.252C63.2213 46.5283 69 33.2605 69 18.1751V15.358L66.3263 14.1766L36.1388 0.817881L34.5 0V0ZM34.5 9.90544V63.6129C34.155 63.6129 31.6537 62.9768 28.8075 60.7958C25.9612 58.6148 22.6837 55.0706 19.665 50.8904C14.145 43.1659 9.8325 32.4426 9.1425 21.0831L34.5 9.99632V9.90544Z" fill="#f0f0f0"/>
</svg>
