<svg width="241" height="55" viewBox="0 0 241 55" fill="none" xmlns="http://www.w3.org/2000/svg">
<path d="M23.7614 11.0909H32.1818V33.608C32.1818 36.2102 31.5625 38.4773 30.3239 40.4091C29.0852 42.3295 27.358 43.8182 25.142 44.875C22.9261 45.9205 20.3523 46.4432 17.4205 46.4432C14.4545 46.4432 11.8636 45.9205 9.64773 44.875C7.43182 43.8182 5.71023 42.3295 4.48295 40.4091C3.25568 38.4773 2.64205 36.2102 2.64205 33.608V11.0909H11.0795V32.875C11.0795 34.0795 11.3409 35.1534 11.8636 36.0966C12.3977 37.0398 13.142 37.7784 14.0966 38.3125C15.0511 38.8466 16.1591 39.1136 17.4205 39.1136C18.6818 39.1136 19.7841 38.8466 20.7273 38.3125C21.6818 37.7784 22.4261 37.0398 22.9602 36.0966C23.4943 35.1534 23.7614 34.0795 23.7614 32.875V11.0909Z" fill="black"/>
<path d="M80.6136 28.5455V32.6364H69.6023V28.5455H80.6136ZM71.9091 24.3636H77.4659V40.5114C77.4659 40.8523 77.5189 41.1288 77.625 41.3409C77.7386 41.5455 77.9015 41.6932 78.1136 41.7841C78.3258 41.8674 78.5795 41.9091 78.875 41.9091C79.0871 41.9091 79.3106 41.8902 79.5455 41.8523C79.7879 41.8068 79.9697 41.7689 80.0909 41.7386L80.9318 45.75C80.6667 45.8258 80.2917 45.9205 79.8068 46.0341C79.3295 46.1477 78.7576 46.2197 78.0909 46.25C76.7879 46.3106 75.6705 46.1591 74.7386 45.7955C73.8144 45.4242 73.1061 44.8485 72.6136 44.0682C72.1288 43.2879 71.8939 42.3068 71.9091 41.125V24.3636ZM83.4489 46V28.5455H88.8466V31.7273H89.0284C89.3466 30.5758 89.8655 29.7197 90.5852 29.1591C91.3049 28.5909 92.142 28.3068 93.0966 28.3068C93.3542 28.3068 93.6193 28.3258 93.892 28.3636C94.1648 28.3939 94.4186 28.4432 94.6534 28.5114V33.3409C94.3883 33.25 94.0398 33.178 93.608 33.125C93.1837 33.072 92.8049 33.0455 92.4716 33.0455C91.8125 33.0455 91.2178 33.1932 90.6875 33.4886C90.1648 33.7765 89.7519 34.1818 89.4489 34.7045C89.1534 35.2197 89.0057 35.8258 89.0057 36.5227V46H83.4489ZM101.182 46.2955C100.068 46.2955 99.0795 46.1098 98.2159 45.7386C97.3598 45.3598 96.6818 44.7917 96.1818 44.0341C95.6894 43.2689 95.4432 42.3106 95.4432 41.1591C95.4432 40.1894 95.6136 39.3712 95.9545 38.7045C96.2955 38.0379 96.7652 37.4962 97.3636 37.0795C97.9621 36.6629 98.6515 36.3485 99.4318 36.1364C100.212 35.9167 101.045 35.7689 101.932 35.6932C102.924 35.6023 103.723 35.5076 104.33 35.4091C104.936 35.303 105.375 35.1553 105.648 34.9659C105.928 34.7689 106.068 34.4924 106.068 34.1364V34.0795C106.068 33.4962 105.867 33.0455 105.466 32.7273C105.064 32.4091 104.523 32.25 103.841 32.25C103.106 32.25 102.515 32.4091 102.068 32.7273C101.621 33.0455 101.337 33.4848 101.216 34.0455L96.0909 33.8636C96.2424 32.803 96.6326 31.8561 97.2614 31.0227C97.8977 30.1818 98.7689 29.5227 99.875 29.0455C100.989 28.5606 102.326 28.3182 103.886 28.3182C105 28.3182 106.027 28.4508 106.966 28.7159C107.905 28.9735 108.723 29.3523 109.42 29.8523C110.117 30.3447 110.655 30.9508 111.034 31.6705C111.42 32.3902 111.614 33.2121 111.614 34.1364V46H106.386V43.5682H106.25C105.939 44.1591 105.542 44.6591 105.057 45.0682C104.58 45.4773 104.015 45.7841 103.364 45.9886C102.72 46.1932 101.992 46.2955 101.182 46.2955ZM102.898 42.6591C103.496 42.6591 104.034 42.5379 104.511 42.2955C104.996 42.053 105.383 41.7197 105.67 41.2955C105.958 40.8636 106.102 40.3636 106.102 39.7955V38.1364C105.943 38.2197 105.75 38.2955 105.523 38.3636C105.303 38.4318 105.061 38.4962 104.795 38.5568C104.53 38.6174 104.258 38.6705 103.977 38.7159C103.697 38.7614 103.428 38.803 103.17 38.8409C102.648 38.9242 102.201 39.053 101.83 39.2273C101.466 39.4015 101.186 39.6288 100.989 39.9091C100.799 40.1818 100.705 40.5076 100.705 40.8864C100.705 41.4621 100.909 41.9015 101.318 42.2045C101.735 42.5076 102.261 42.6591 102.898 42.6591ZM121.386 46.25C120.098 46.25 118.928 45.9167 117.875 45.25C116.822 44.5833 115.981 43.5833 115.352 42.25C114.723 40.9167 114.409 39.2614 114.409 37.2841C114.409 35.2311 114.735 33.5417 115.386 32.2159C116.038 30.8902 116.89 29.9091 117.943 29.2727C119.004 28.6364 120.144 28.3182 121.364 28.3182C122.28 28.3182 123.064 28.4773 123.716 28.7955C124.367 29.1061 124.905 29.5076 125.33 30C125.754 30.4924 126.076 31.0038 126.295 31.5341H126.409V22.7273H131.966V46H126.466V43.1705H126.295C126.061 43.7083 125.727 44.2121 125.295 44.6818C124.864 45.1515 124.322 45.5303 123.67 45.8182C123.027 46.1061 122.265 46.25 121.386 46.25ZM123.318 41.9205C123.992 41.9205 124.568 41.7311 125.045 41.3523C125.523 40.9659 125.89 40.4242 126.148 39.7273C126.405 39.0303 126.534 38.2121 126.534 37.2727C126.534 36.3182 126.405 35.4962 126.148 34.8068C125.898 34.1174 125.53 33.5871 125.045 33.2159C124.568 32.8447 123.992 32.6591 123.318 32.6591C122.629 32.6591 122.045 32.8485 121.568 33.2273C121.091 33.6061 120.727 34.1402 120.477 34.8295C120.235 35.5189 120.114 36.3333 120.114 37.2727C120.114 38.2121 120.239 39.0303 120.489 39.7273C120.739 40.4242 121.098 40.9659 121.568 41.3523C122.045 41.7311 122.629 41.9205 123.318 41.9205ZM143.639 46.3295C141.813 46.3295 140.238 45.9697 138.912 45.25C137.594 44.5227 136.579 43.4886 135.866 42.1477C135.162 40.7992 134.81 39.197 134.81 37.3409C134.81 35.5379 135.166 33.9621 135.878 32.6136C136.59 31.2576 137.594 30.2045 138.889 29.4545C140.185 28.697 141.711 28.3182 143.469 28.3182C144.711 28.3182 145.848 28.5114 146.878 28.8977C147.908 29.2841 148.798 29.8561 149.548 30.6136C150.298 31.3712 150.882 32.3068 151.298 33.4205C151.715 34.5265 151.923 35.7955 151.923 37.2273V38.6136H136.753V35.3864H146.753C146.745 34.7955 146.605 34.2689 146.332 33.8068C146.06 33.3447 145.685 32.9848 145.207 32.7273C144.738 32.4621 144.196 32.3295 143.582 32.3295C142.961 32.3295 142.404 32.4697 141.912 32.75C141.42 33.0227 141.029 33.3977 140.741 33.875C140.454 34.3447 140.302 34.8788 140.287 35.4773V38.7614C140.287 39.4735 140.427 40.0985 140.707 40.6364C140.988 41.1667 141.385 41.5795 141.901 41.875C142.416 42.1705 143.029 42.3182 143.741 42.3182C144.234 42.3182 144.681 42.25 145.082 42.1136C145.484 41.9773 145.829 41.7765 146.116 41.5114C146.404 41.2462 146.62 40.9205 146.764 40.5341L151.866 40.6818C151.654 41.8258 151.188 42.822 150.469 43.6705C149.757 44.5114 148.821 45.1667 147.662 45.6364C146.503 46.0985 145.162 46.3295 143.639 46.3295Z" fill="#1E1E1E"/>
<path d="M53.6922 11H38V45H47.8989V24.7689H44.2702C43.6081 24.7689 43.4189 24.3195 43.8495 23.7787L49.5295 16.6344C49.96 16.0862 50.6684 16.0862 51.099 16.6344L56.7809 23.7787C57.1957 24.3195 57.0164 24.7689 56.3484 24.7689H52.7217V34.2262H53.6803C61.8609 34.2262 64.9999 28.1222 64.9999 22.2062C65.0157 16.5335 61.5673 11 53.6902 11L53.6922 11Z" fill="black"/>
</svg>
